<svg xmlns="http://www.w3.org/2000/svg" xmlns:xlink="http://www.w3.org/1999/xlink" fill="none" version="1.1" width="32"
    height="32" viewBox="0 0 32 32">
    <defs>
        <clipPath id="master_svg0_17_263">
            <rect x="0" y="0" width="32" height="32" rx="0" />
        </clipPath>
    </defs>
    <g clip-path="url(#master_svg0_17_263)">
        <g>
            <path
                d="M10.09690931640625,15.065861328125L6.53328931640625,15.065861328125C3.91996931640625,15.065861328125,1.78179931640625,12.896361328125,1.78179931640625,10.244771328125L1.78179931640625,6.628951328125C1.78179931640625,3.977351328125,3.91996931640625,1.807861328125,6.53328931640625,1.807861328125L10.09690931640625,1.807861328125C12.71019931640625,1.807861328125,14.84839931640625,3.977351328125,14.84839931640625,6.628951328125L14.84839931640625,10.244771328125C14.84839931640625,12.896361328125,12.71019931640625,15.065861328125,10.09690931640625,15.065861328125ZM6.53328931640625,4.218401328125C5.22662931640625,4.218401328125,4.15753931640625,5.303151328125,4.15753931640625,6.628951328125L4.15753931640625,10.244771328125C4.15753931640625,11.570571328125,5.22662931640625,12.655361328125,6.53328931640625,12.655361328125L10.09690931640625,12.655361328125C11.40356931640625,12.655361328125,12.47269931640625,11.570571328125,12.47269931640625,10.244771328125L12.47269931640625,6.628951328125C12.47269931640625,5.303151328125,11.40356931640625,4.218401328125,10.09690931640625,4.218401328125L6.53328931640625,4.218401328125ZM10.09690931640625,30.734461328125L6.53328931640625,30.734461328125C3.91996931640625,30.734461328125,1.78179931640625,28.564961328125,1.78179931640625,25.913361328125L1.78179931640625,22.297461328125C1.78179931640625,19.645861328125,3.91996931640625,17.476361328125,6.53328931640625,17.476361328125L10.09690931640625,17.476361328125C12.71019931640625,17.476361328125,14.84839931640625,19.645861328125,14.84839931640625,22.297461328125L14.84839931640625,25.913361328125C14.84839931640625,28.564961328125,12.71019931640625,30.734461328125,10.09690931640625,30.734461328125ZM6.53328931640625,19.886961328125C5.22662931640625,19.886961328125,4.15753931640625,20.971661328125,4.15753931640625,22.297461328125L4.15753931640625,25.913361328125C4.15753931640625,27.239161328125,5.22662931640625,28.323861328125,6.53328931640625,28.323861328125L10.09690931640625,28.323861328125C11.40356931640625,28.323861328125,12.47269931640625,27.239161328125,12.47269931640625,25.913361328125L12.47269931640625,22.297461328125C12.47269931640625,20.971661328125,11.40356931640625,19.886961328125,10.09690931640625,19.886961328125L6.53328931640625,19.886961328125ZM25.53929931640625,30.734461328125L21.97559931640625,30.734461328125C19.36229931640625,30.734461328125,17.22409931640625,28.564961328125,17.22409931640625,25.913361328125L17.22409931640625,22.297461328125C17.22409931640625,19.645861328125,19.36229931640625,17.476361328125,21.97559931640625,17.476361328125L25.53929931640625,17.476361328125C28.15259931640625,17.476361328125,30.29069931640625,19.645861328125,30.29069931640625,22.297461328125L30.29069931640625,25.913361328125C30.29069931640625,28.564961328125,28.15259931640625,30.734461328125,25.53929931640625,30.734461328125ZM21.97559931640625,19.886961328125C20.66899931640625,19.886961328125,19.59989931640625,20.971661328125,19.59989931640625,22.297461328125L19.59989931640625,25.913361328125C19.59989931640625,27.239161328125,20.66899931640625,28.323861328125,21.97559931640625,28.323861328125L25.53929931640625,28.323861328125C26.84589931640625,28.323861328125,27.91499931640625,27.239161328125,27.91499931640625,25.913361328125L27.91499931640625,22.297461328125C27.91499931640625,20.971661328125,26.84589931640625,19.886961328125,25.53929931640625,19.886961328125L21.97559931640625,19.886961328125Z"
                fill="#388CEB" fill-opacity="1" />
        </g>
        <g>
            <path
                d="M23.460501181640623,15.0659396484375C22.332021181640627,15.0659396484375,21.144141181640624,14.6441396484375,20.253241181640625,13.7401396484375L17.936891181640625,11.3898396484375C16.214474181640625,9.6422196484375,16.155081181640625,6.7495696484375,17.936891181640625,4.941659648437501L20.312631181640626,2.5913696484375C22.094441181640626,0.8437286484375,24.945341181640625,0.8437286484375,26.667711181640627,2.5913696484375L28.984111181640625,4.941659648437501C30.706511181640625,6.6892996484375,30.765911181640625,9.5819596484375,29.043511181640625,11.3296396484375L28.984111181640625,11.3898396484375L26.667711181640627,13.7401396484375C25.776841181640627,14.6441396484375,24.588971181640623,15.0659396484375,23.460501181640623,15.0659396484375ZM19.599911181640625,6.6892996484375C18.827791181640624,7.4727296484375,18.827791181640624,8.8587996484375,19.659301181640625,9.7024896484375L21.975661181640625,12.0527396484375C22.807171181640626,12.8964396484375,24.173221181640624,12.8964396484375,25.004731181640626,12.0527396484375L27.380511181640625,9.6422196484375C28.152611181640623,8.798529648437501,28.152611181640623,7.4727296484375,27.380511181640625,6.6290396484375L25.064121181640623,4.2787596484375C24.232611181640625,3.4350696484375,22.866561181640627,3.4350696484375,22.035051181640625,4.2787596484375L19.599911181640625,6.6892996484375Z"
                fill="#E78E00" fill-opacity="1" />
        </g>
    </g>
</svg>