<svg xmlns="http://www.w3.org/2000/svg" xmlns:xlink="http://www.w3.org/1999/xlink" fill="none" version="1.1" width="32" height="32" viewBox="0 0 32 32"><defs><clipPath id="master_svg0_17_02983"><rect x="0" y="0" width="32" height="32" rx="0"/></clipPath></defs><g clip-path="url(#master_svg0_17_02983)"><g><path d="M12.9600440234375,22.60005859375C12.5933740234375,22.96675859375,12.0933740234375,23.18005859375,11.5800440234375,23.18675859375L6.4467040234374995,23.26675859375C5.8533740234375,23.21335859375,5.3867073234375,22.74675859375,5.3333740234375,22.15335859375L5.4133739234375,17.02005859375C5.4200406234375,16.500058593749998,5.6333740234375,16.006728593749997,6.0000410234375,15.64005859375L15.5800740234375,6.06005859375L22.5400740234375,13.02005859375L12.9600440234375,22.60005859375Z" fill="#2953FF" fill-opacity="1"/></g><g><path d="M23.4133252734375,12.14665765625L16.4466552734375,5.18665765625L17.7533252734375,3.8799896562500003C18.7961752734375,2.84013365625,20.4838052734375,2.84013365625,21.5266552734375,3.8799896562500003L24.7199852734375,7.07332765625C25.7598452734375,8.116177656249999,25.7598452734375,9.803797656250001,24.7199852734375,10.846657656249999L23.4133252734375,12.14665765625Z" fill="#FCCA1E" fill-opacity="1"/></g><g><path d="M24.6666740234375,28.9000244140625L7.3333740234375,28.9000244140625C6.2267070234375,28.9000244140625,5.3333740234375,28.0066944140625,5.3333740234375,26.9000244140625C5.3333740234375,25.7933574140625,6.2267070234375,24.9000244140625,7.3333740234375,24.9000244140625L24.6666740234375,24.9000244140625C25.7733740234375,24.9000244140625,26.6666740234375,25.7933574140625,26.6666740234375,26.9000244140625C26.6666740234375,28.0066944140625,25.7733740234375,28.9000244140625,24.6666740234375,28.9000244140625Z" fill="#93A8FF" fill-opacity="1"/></g></g></svg>