<svg t="1685706809585" class="icon" viewBox="0 0 1024 1024" version="1.1" xmlns="http://www.w3.org/2000/svg" p-id="36503" width="64" height="64"><path d="M512 849.6c-234.4 0-425.6-189.6-425.6-423.2C86.4 193.6 277.6 4 512 4s425.6 189.6 425.6 423.2c0 232.8-191.2 422.4-425.6 422.4zM512 36c-216.8 0-393.6 175.2-393.6 391.2s176.8 391.2 393.6 391.2 393.6-175.2 393.6-391.2S728.8 36 512 36z" fill="#FFF" p-id="36504"></path><path d="M512 841.6c-124 0-224.8-186.4-224.8-415.2S388 12 512 12c124 0 224.8 186.4 224.8 415.2S636 841.6 512 841.6zM512 28c-115.2 0-208.8 179.2-208.8 399.2s93.6 399.2 208.8 399.2 208.8-179.2 208.8-399.2S627.2 28 512 28z" fill="#FFF" p-id="36505"></path><path d="M921.6 435.2H102.4c-4.8 0-8-3.2-8-8s3.2-8 8-8h818.4c4.8 0 8 3.2 8 8 0.8 4-3.2 8-7.2 8zM768 117.6H256c-4.8 0-8-3.2-8-8s3.2-8 8-8h512c4.8 0 8 3.2 8 8 0 4-3.2 8-8 8zM768 752H256c-4.8 0-8-3.2-8-8s3.2-8 8-8h512c4.8 0 8 3.2 8 8s-3.2 8-8 8zM881.6 259.2H143.2c-4.8 0-8-3.2-8-8s3.2-8 8-8h738.4c4.8 0 8 3.2 8 8s-4 8-8 8zM881.6 610.4H143.2c-4.8 0-8-3.2-8-8s3.2-8 8-8h738.4c4.8 0 8 3.2 8 8 0 4-4 8-8 8z" fill="#FFF" p-id="36506"></path><path d="M512 841.6c-4.8 0-8-3.2-8-8V20c0-4.8 3.2-8 8-8s8 3.2 8 8v813.6c0 4.8-3.2 8-8 8z" fill="#FFF" p-id="36507"></path><path d="M512 913.6c-8.8 0-16-7.2-16-16v-64c0-8.8 7.2-16 16-16s16 7.2 16 16v64c0 8.8-7.2 16-16 16zM394.4 970.4H20c-8.8 0-16-7.2-16-16s7.2-16 16-16h374.4c8.8 0 16 7.2 16 16s-7.2 16-16 16zM1004 970.4H621.6c-8.8 0-16-7.2-16-16s7.2-16 16-16h382.4c8.8 0 16 7.2 16 16s-7.2 16-16 16z" fill="#FFF" p-id="36508"></path><path d="M571.2 1020H452.8c-33.6 0-60.8-27.2-60.8-60.8v-9.6c0-33.6 27.2-60.8 60.8-60.8h118.4c33.6 0 60.8 27.2 60.8 60.8v9.6c0 33.6-27.2 60.8-60.8 60.8z m-118.4-99.2c-16 0-28.8 12.8-28.8 28.8v9.6c0 16 12.8 28.8 28.8 28.8h118.4c16 0 28.8-12.8 28.8-28.8v-9.6c0-16-12.8-28.8-28.8-28.8H452.8z" fill="#FFF" p-id="36509"></path></svg>