<svg t="1685705813414" class="icon" viewBox="0 0 1024 1024" version="1.1" xmlns="http://www.w3.org/2000/svg"
    p-id="12009" width="64" height="64">
    <path
        d="M192.6 843.4c-2.3 0-4.6-0.9-6.4-2.6-2.4-2.4-3.3-6-2.2-9.3l60.8-179.6c0.4-1.3 1.2-2.5 2.2-3.5l462.7-462.7c1.8-1.8 4.1-2.6 6.4-2.6s4.6 0.9 6.4 2.6l118.8 118.8c1.7 1.7 2.6 4 2.6 6.4s-0.9 4.7-2.6 6.4L378.5 779.9c-1 1-2.2 1.7-3.5 2.2l-179.6 60.8c-0.9 0.3-1.9 0.5-2.8 0.5z"
        fill="#66C1FF" p-id="12010"></path>
    <path
        d="M716.1 192.1l118.8 118.8-462.7 462.7-179.6 60.8 60.8-179.6 462.7-462.7m0-18c-4.8 0-9.4 1.9-12.7 5.3L240.7 642.1c-2 2-3.4 4.3-4.3 7l-60.8 179.6c-2.2 6.5-0.5 13.7 4.3 18.5 3.4 3.4 8 5.3 12.7 5.3 1.9 0 3.9-0.3 5.8-1L378 790.7c2.6-0.9 5-2.4 7-4.3l462.7-462.7c7-7 7-18.4 0-25.5L728.9 179.3c-3.4-3.3-8-5.2-12.8-5.2z"
        fill="#330867" p-id="12011"></path>
    <path d="M656.053 252.138l60.104-60.103L834.95 310.828l-60.104 60.103z" fill="#FC6B79" p-id="12012"></path>
    <path d="M372.2 773.6l-179.6 60.8 60.8-179.6z" fill="#F7D7FF" p-id="12013"></path>
    <path d="M266.1 809.5l-73.5 24.9 24.9-73.6z" fill="#EAB236" p-id="12014"></path>
    <path
        d="M774.8 374c-0.8 0-1.5-0.3-2.1-0.9L653.9 254.3c-1.2-1.2-1.2-3.1 0-4.2 1.2-1.2 3.1-1.2 4.2 0l118.8 118.8c1.2 1.2 1.2 3.1 0 4.2-0.6 0.6-1.3 0.9-2.1 0.9z"
        fill="#330867" p-id="12015"></path>
    <path
        d="M372.2 776.6c-0.8 0-1.5-0.3-2.1-0.9L251.3 656.9c-1.2-1.2-1.2-3.1 0-4.2 1.2-1.2 3.1-1.2 4.2 0l118.8 118.8c1.2 1.2 1.2 3.1 0 4.2-0.6 0.6-1.4 0.9-2.1 0.9z"
        fill="#330867" p-id="12016"></path>
    <path
        d="M769.8 731.3c-1.8 1.8-4.1 2.6-6.4 2.6s-4.6-0.9-6.4-2.6c-3.5-3.5-3.5-9.2 0-12.7l47.5-47.5-45.1-45.1-47.4 47.5c-1.8 1.8-4.1 2.6-6.4 2.6-2.3 0-4.6-0.9-6.4-2.6-3.5-3.5-3.5-9.2 0-12.7l47.5-47.5-45-45-47.5 47.5c-1.8 1.8-4.1 2.6-6.4 2.6s-4.6-0.9-6.4-2.6c-3.5-3.5-3.5-9.2 0-12.7l47.5-47.5-45.1-45.1-47.3 47.5c-1.8 1.8-4.1 2.6-6.4 2.6-2.3 0-4.6-0.9-6.4-2.6-3.5-3.5-3.5-9.2 0-12.7l47.5-47.6-45-45-47.5 47.5c-1.8 1.8-4.1 2.6-6.4 2.6-2.3 0-4.6-0.9-6.4-2.6-3.5-3.5-3.5-9.2 0-12.7l47.5-47.5-45-45-47.6 47.5c-1.8 1.8-4.1 2.6-6.4 2.6-2.3 0-4.6-0.9-6.4-2.6-3.5-3.5-3.5-9.2 0-12.7l47.6-47.5-45.1-45.1-47.5 47.5c-1.8 1.8-4.1 2.6-6.4 2.6s-4.6-0.9-6.4-2.6c-3.5-3.5-3.5-9.2 0-12.7l47.5-47.5-45-45-47.5 47.5c-1.8 1.8-4.1 2.6-6.4 2.6s-4.6-0.9-6.4-2.6c-3.5-3.5-3.5-9.2 0-12.7l47.5-47.5-45.1-45.1-47.5 47.5c-1.8 1.8-4.1 2.6-6.4 2.6s-4.6-0.9-6.4-2.6c-3.5-3.5-3.5-9.2 0-12.7L342 209l-52.1-52.1-132.5 132.8 579.9 579.9 132.9-132.9-52.9-52.9-47.5 47.5z"
        fill="#FFE08A" p-id="12017"></path>
    <path
        d="M889.3 730.3L296.7 137.7c-3.5-3.5-9.2-3.5-12.7 0L138.3 283.3c-3.5 3.5-3.5 9.2 0 12.7l592.6 592.6c1.7 1.7 4 2.6 6.4 2.6s4.7-0.9 6.4-2.6L889.3 743c3.5-3.5 3.5-9.2 0-12.7zM737.2 869.6L157.4 289.7l132.9-132.9 52.1 52.1-47.5 47.5c-3.5 3.5-3.5 9.2 0 12.7 1.8 1.8 4.1 2.6 6.4 2.6s4.6-0.9 6.4-2.6l47.5-47.5 45.1 45.1-47.5 47.5c-3.5 3.5-3.5 9.2 0 12.7 1.8 1.8 4.1 2.6 6.4 2.6s4.6-0.9 6.4-2.6l47.5-47.5 45 45-47.5 47.5c-3.5 3.5-3.5 9.2 0 12.7 1.8 1.8 4.1 2.6 6.4 2.6s4.6-0.9 6.4-2.6l47.5-47.5 45.1 45.1-47.6 47.5c-3.5 3.5-3.5 9.2 0 12.7 1.8 1.8 4.1 2.6 6.4 2.6 2.3 0 4.6-0.9 6.4-2.6l47.6-47.5 45 45-47.5 47.5c-3.5 3.5-3.5 9.2 0 12.7 1.8 1.8 4.1 2.6 6.4 2.6 2.3 0 4.6-0.9 6.4-2.6l47.5-47.5 45 45-47.5 47.6c-3.5 3.5-3.5 9.2 0 12.7 1.8 1.8 4.1 2.6 6.4 2.6 2.3 0 4.6-0.9 6.4-2.6l47.5-47.6 45.1 45.1-47.5 47.5c-3.5 3.5-3.5 9.2 0 12.7 1.8 1.8 4.1 2.6 6.4 2.6s4.6-0.9 6.4-2.6l47.5-47.5 45 45-47.5 47.5c-3.5 3.5-3.5 9.2 0 12.7 1.8 1.8 4.1 2.6 6.4 2.6 2.3 0 4.6-0.9 6.4-2.6l47.5-47.5 45.1 45.1-48.2 47.6c-3.5 3.5-3.5 9.2 0 12.7 1.8 1.8 4.1 2.6 6.4 2.6s4.6-0.9 6.4-2.6l47.5-47.5 52.9 52.9-133 133z"
        fill="#330867" p-id="12018"></path>
</svg>