<svg t="1685707243897" class="icon" viewBox="0 0 1084 1024" version="1.1" xmlns="http://www.w3.org/2000/svg" p-id="78861" width="64" height="64"><path d="M724.028235 17.648941c-25.298824-16.263529-57.163294-18.070588-84.148706-4.879059l-366.772705 178.296471a5.421176 5.421176 0 0 1-2.409412 0.542118H87.280941C39.152941 191.548235 0.060235 231.122824 0 279.853176v419.237648c0.060235 48.790588 39.092706 88.304941 87.220706 88.304941h185.223529a5.421176 5.421176 0 0 1 2.288941 0.481882l366.230589 171.670588c27.045647 12.649412 58.548706 10.541176 83.606588-5.662117 25.057882-16.263529 40.237176-44.272941 40.297412-74.390589V92.340706a88.064 88.064 0 0 0-40.779294-74.691765zM81.799529 699.090824v-419.237648c0-3.011765 2.409412-5.481412 5.421177-5.481411h144.384v430.260706H87.220706a5.421176 5.421176 0 0 1-3.915294-1.626353 5.541647 5.541647 0 0 1-1.566118-3.915294z m601.389177 180.404705c0 1.867294-0.963765 3.614118-2.529882 4.638118a5.421176 5.421176 0 0 1-5.240471 0.361412l-362.014118-169.743059V263.288471l361.953883-175.887059a5.421176 5.421176 0 0 1 5.24047 0.301176 5.541647 5.541647 0 0 1 2.590118 4.638118v787.154823z m360.267294-430.441411h-177.694118a41.080471 41.080471 0 0 0-40.899764 41.381647c0 22.889412 18.311529 41.381647 40.839529 41.381647h177.754353A41.080471 41.080471 0 0 0 1084.235294 490.435765a41.080471 41.080471 0 0 0-40.839529-41.381647z m-151.732706-141.19153c10.842353 0 21.263059-4.336941 28.912941-12.047059l125.711059-127.277176a41.803294 41.803294 0 0 0-0.12047-58.428235 40.478118 40.478118 0 0 0-57.705412-0.120471L862.810353 237.327059a41.803294 41.803294 0 0 0-8.854588 45.116235 40.839529 40.839529 0 0 0 37.707294 25.47953z m28.912941 377.253647a40.478118 40.478118 0 0 0-39.454117-10.721882 41.140706 41.140706 0 0 0-28.912942 29.274353 41.803294 41.803294 0 0 0 10.601412 39.936l125.650824 127.277176a40.478118 40.478118 0 0 0 57.705412-0.060235 41.803294 41.803294 0 0 0 0.12047-58.428235l-125.711059-127.277177z" fill="#2c2c2c" p-id="78862" data-spm-anchor-id="a313x.7781069.0.i22" class="selected"></path></svg>