<svg t="1685706637541" class="icon" viewBox="0 0 1024 1024" version="1.1" xmlns="http://www.w3.org/2000/svg" p-id="17572" width="64" height="64"><path d="M892.052736 491.2206c-31.419785-31.421815-73.341926-48.727156-118.041893-48.727156h-15.846906v-89.289309c0-21.87551-8.577059-42.645776-24.149938-58.482533-15.801235-16.070188-36.842484-24.919245-59.24981-24.919245h-88.882328c1.58124-9.325053 1.58124-18.681568 1.58124-27.753907 0-44.699967-17.305341-86.621093-48.728171-118.043923-31.421815-31.4208-73.343956-48.725126-118.040878-48.725126-44.698952 0-86.621093 17.304326-118.041893 48.725126-31.4208 31.421815-48.726141 73.343956-48.726141 118.043923 0 9.072339 0 18.428854 1.57718 27.753907h-88.879282c-21.87551 0-42.645776 8.576044-58.484563 24.150953-16.069173 15.801235-24.919245 36.844514-24.919245 59.250825V478.255041c0 10.549042 4.278888 19.107833 12.717919 25.435838 8.612581 6.460958 17.01203 8.399449 27.411879 6.319885 9.65896-1.932401 19.647768-3.931787 27.392597-3.931787 56.895204 0 103.182501 46.288312 103.1825 103.184531 0 56.895204-46.287297 103.181486-103.1825 103.181485-7.721485 0-17.683905-1.989236-27.299224-3.908443a27.915278 27.915278 0 0 0-6.758329-0.805844c-7.271877 0-14.64017 2.521053-20.747938 7.099341-8.438016 6.329019-12.717919 14.886795-12.717919 25.437867v125.048877c0 21.874495 8.577059 42.645776 24.149938 58.482533 15.801235 16.069173 36.844514 24.919245 59.252855 24.919245H676.74835c23.556212 0 46.085328-9.874123 61.806385-27.090151 14.485903-15.865175 21.44823-35.891507 19.608187-56.401955V776.031542h15.846906c44.697937 0 86.620078-17.306356 118.041893-48.729186 31.421815-31.421815 48.726141-73.343956 48.726141-118.040878 0.001015-44.698952-17.303311-86.621093-48.725126-118.040878zM774.010843 712.443978c-11.590346 0-23.535914-3.984562-35.088708-7.8382l-0.244595-0.063939c-4.123606-0.825127-7.78441-1.225004-11.189454-1.225005-7.190683 0-13.100542 1.785238-18.061454 5.454162-7.939692 4.069815-12.864067 13.834327-12.864067 25.540373v129.02126c0 10.742891-9.073353 19.816245-19.8132 19.816245H166.623916c-10.741876 0-19.816245-9.073353-19.816245-19.816245v-87.368072c1.489897-0.140058 3.111734-0.573428 4.720377-1.923267 44.403612-0.200953 86.018233-17.485996 117.257363-48.722081 31.421815-31.421815 48.727156-73.343956 48.727156-118.043923 0-92.039732-74.32944-166.918242-165.692223-166.918242-1.661418 0-3.34009 0.024358-5.012673 0.075104v-87.228013c0-10.740861 9.074368-19.81523 19.816245-19.81523h131.004407c9.956331 0 20.718505-5.770815 27.418984-14.70005 6.034693-8.048288 6.811105-18.335481 2.226726-29.796934-6.38484-14.895929-9.760452-30.406898-9.760452-44.856264 0-56.896219 46.286282-103.185545 103.180471-103.185545 56.895204 0 103.182501 46.289327 103.182501 103.185545 0 17.98635-2.813349 30.950894-9.710721 44.748683-4.028204 8.049303-4.576258 20.90728 2.173951 29.90553 6.700479 8.93025 17.463668 14.700051 27.418984 14.70005H676.74835c10.739846 0 19.8132 9.074368 19.8132 19.81523v131.004406c0 10.547012 4.278888 19.105803 12.717919 25.435838 5.617563 4.212918 12.029805 6.439645 18.542524 6.439645 3.772445 0 7.544889-0.742919 11.209753-2.210488l0.153252-0.068c10.545997-5.272491 21.610617-7.727574 34.82483-7.727574 56.893174 0 103.180471 46.288312 103.180471 103.184531 0.001015 56.893174-46.286282 103.180471-103.179456 103.18047z" fill="#FFF" p-id="17573"></path></svg>