<svg t="1685706915680" class="icon" viewBox="0 0 1120 1024" version="1.1" xmlns="http://www.w3.org/2000/svg" p-id="42757" width="64" height="64"><path d="M736.857407 1024H383.999938a207.952024 207.952024 0 0 1-178.970935-101.688031l-176.428734-305.064094A207.952024 207.952024 0 0 1 28.600269 406.75365L204.520563 101.689557a207.952024 207.952024 0 0 1 179.479375-101.688032h352.857469A207.952024 207.952024 0 0 1 916.336782 101.689557l176.428734 305.064093a207.952024 207.952024 0 0 1 0 206.426704l-176.428734 305.064094a207.952024 207.952024 0 0 1-179.479375 105.755552zM383.999938 76.267549a131.17756 131.17756 0 0 0-112.873715 65.08034l-176.428734 305.064094a132.194441 132.194441 0 0 0 0 130.16068l176.428734 305.064093a131.17756 131.17756 0 0 0 112.873715 65.08034h352.857469a131.17756 131.17756 0 0 0 112.873714-65.08034l176.428734-305.064093a132.194441 132.194441 0 0 0 0-130.16068l-176.428734-305.064094a131.17756 131.17756 0 0 0-112.873714-65.08034z" fill="#FFF" p-id="42758"></path><path d="M560.428672 703.682702a191.681939 191.681939 0 1 1 191.681939-191.681939A191.681939 191.681939 0 0 1 560.428672 703.682702z m0-305.064094a115.415915 115.415915 0 1 0 115.415916 115.415915A115.415915 115.415915 0 0 0 560.428672 396.584847z" fill="#FFF" p-id="42759"></path></svg>