<svg xmlns="http://www.w3.org/2000/svg" xmlns:xlink="http://www.w3.org/1999/xlink" fill="none" version="1.1" width="32" height="32" viewBox="0 0 32 32"><defs><clipPath id="master_svg0_17_1139"><rect x="0" y="0" width="32" height="32" rx="0"/></clipPath></defs><g clip-path="url(#master_svg0_17_1139)"><g><path d="M27.2656,30L25.7719,30L25.7719,28L27.2656,28C27.3375,28,27.4094,27.9906,27.4781,27.9688L28.05,29.8844C27.7969,29.9625,27.5344,30,27.2656,30ZM23.7719,30L21.7719,30L21.7719,28L23.7719,28L23.7719,30ZM19.7719,30L17.771900000000002,30L17.771900000000002,28L19.7719,28L19.7719,30ZM29.9781,27.6094L27.9938,27.3594C27.9969,27.3281,28,27.2969,28,27.2656L28,25.4844L30,25.4844L30,27.2656C30,27.3813,29.9938,27.4969,29.9781,27.6094ZM30,23.4844L28,23.4844L28,21.4844L30,21.4844L30,23.4844ZM30,19.4844L28,19.4844L28,17.4844L30,17.4844L30,19.4844ZM4,16L2,16L2,14L4,14L4,16ZM30,15.4844L28,15.4844L28,13.4844L30,13.4844L30,15.4844ZM4,12L2,12L2,10L4,10L4,12ZM30,11.48438L28,11.48438L28,9.48438L30,9.48438L30,11.48438ZM4,8L2,8L2,6L4,6L4,8ZM30,7.48438L28,7.48438L28,5.48438L30,5.48438L30,7.48438ZM4.0625,4.43125L2.2375,3.60938C2.68125,2.63125,3.65937,2,4.73438,2L4.74375,2L4.74375,4L4.73438,4C4.44375,4,4.18125,4.16875,4.0625,4.43125ZM27.8188,4.25C27.6781,4.0875,27.4813,4,27.2656,4L26.7406,4L26.7406,2L27.2656,2C28.0531,2,28.8031,2.340625,29.3219,2.93125L27.8188,4.25ZM24.7437,4L22.7437,4L22.7437,2L24.7437,2L24.7437,4ZM20.7437,4L18.7437,4L18.7437,2L20.7437,2L20.7437,4ZM16.7437,4L14.7437,4L14.7437,2L16.7437,2L16.7437,4ZM12.7437,4L10.74375,4L10.74375,2L12.7437,2L12.7437,4ZM8.74375,4L6.74375,4L6.74375,2L8.74375,2L8.74375,4Z" fill="#BFD1EB" fill-opacity="1"/></g><g><path d="M13.4,30.000023474121093L4.73438,30.000023474121093C3.22813,30.000023474121093,2,28.77502347412109,2,27.265623474121092L2,18.600003474121095C2,17.093743474121094,3.225,15.865623474121094,4.73438,15.865623474121094L13.4,15.865623474121094C14.9062,15.865623474121094,16.1344,17.090623474121095,16.1344,18.600003474121095L16.1344,27.265623474121092C16.1344,28.77502347412109,14.9062,30.000023474121093,13.4,30.000023474121093ZM4.73438,17.865623474121094C4.33125,17.865623474121094,4,18.193743474121092,4,18.600003474121095L4,27.265623474121092C4,27.668723474121094,4.32812,28.000023474121093,4.73438,28.000023474121093L13.4,28.000023474121093C13.8031,28.000023474121093,14.1344,27.671823474121094,14.1344,27.265623474121092L14.1344,18.600003474121095C14.1344,18.196873474121094,13.8062,17.865623474121094,13.4,17.865623474121094L4.73438,17.865623474121094Z" fill="#353D44" fill-opacity="1"/></g><g><path d="M25.93443720703125,10.859378051757812L25.93443720703125,6.0656280517578125L21.14063720703125,6.0656280517578125L19.10313720703125,8.100008051757813L22.48438720703125,8.100008051757813L15.84063720703125,14.746878051757813L17.25313720703125,16.15932805175781L23.90000720703125,9.515628051757812L23.90000720703125,12.896878051757813L25.93443720703125,10.859378051757812Z" fill="#497CAD" fill-opacity="1"/></g></g></svg>